<?xml version="1.0" encoding="UTF-8" standalone="no"?>
<svg
   version="1.1"
   id="Layer_1"
   x="0px"
   y="0px"
   viewBox="0 0 122.88 122.88"
   style="enable-background:new 0 0 122.88 122.88"
   xml:space="preserve"
   sodipodi:docname="dna-science-icon.svg"
   inkscape:version="1.2.1 (9c6d41e410, 2022-07-14)"
   xmlns:inkscape="http://www.inkscape.org/namespaces/inkscape"
   xmlns:sodipodi="http://sodipodi.sourceforge.net/DTD/sodipodi-0.dtd"
   xmlns="http://www.w3.org/2000/svg"
   xmlns:svg="http://www.w3.org/2000/svg"><defs
     id="defs148" /><sodipodi:namedview
     id="namedview146"
     pagecolor="#ffffff"
     bordercolor="#000000"
     borderopacity="0.25"
     inkscape:showpageshadow="2"
     inkscape:pageopacity="0.0"
     inkscape:pagecheckerboard="0"
     inkscape:deskcolor="#d1d1d1"
     showgrid="false"
     inkscape:zoom="9.4889323"
     inkscape:cx="60.228062"
     inkscape:cy="61.44"
     inkscape:window-width="3440"
     inkscape:window-height="1369"
     inkscape:window-x="2552"
     inkscape:window-y="-8"
     inkscape:window-maximized="1"
     inkscape:current-layer="g143" /><g
     id="g143"><path
       d="m 76.36,56.15 -2.48,-2.48 c -0.75,-0.75 -0.75,-1.96 0,-2.71 0.75,-0.75 1.96,-0.75 2.71,0 l 4.95,4.95 c 3.9,-0.33 7.8,-1.03 11.72,-2.31 L 77.46,37.8 c -0.75,-0.75 -0.75,-1.96 0,-2.71 0.75,-0.75 1.96,-0.75 2.71,0 l 17.02,17.02 c 2.91,-1.26 5.83,-2.87 8.76,-4.93 l -20.8,-20.8 c -0.75,-0.75 -0.75,-1.96 0,-2.71 0.75,-0.75 1.96,-0.75 2.71,0 l 21.17,21.17 c 1.46,-1.19 2.93,-2.49 4.39,-3.92 0.76,-0.74 1.97,-0.72 2.7,0.04 0.74,0.76 0.72,1.97 -0.04,2.7 C 96.88,62.42 78.4,60.72 59.79,59 41.3,57.3 22.66,55.59 3.28,75.62 2.54,76.38 1.33,76.39 0.58,75.66 -0.18,74.92 -0.19,73.71 0.54,72.96 19.51,53.35 37.56,53.28 55.42,54.79 54.87,46.66 54.79,38.33 56.85,29.67 59.07,20.34 63.75,10.7 72.98,0.63 73.69,-0.15 74.9,-0.2 75.67,0.51 76.45,1.22 76.5,2.43 75.79,3.2 70.621319,8.8428724 66.966909,14.327642 64.412349,19.683465 62.657152,23.363365 61.421176,26.982391 60.57,30.55 58.58,38.94 58.71,47.12 59.28,55.13 l 0.86,0.08 c 1.03,0.09 2.06,0.19 3.09,0.28 -0.55,-7.75 -0.6,-15.5 1.33,-23.38 2.06,-8.38 6.36,-16.81 14.66,-25.31 0.74,-0.76 1.95,-0.77 2.7,-0.04 0.76,0.74 0.77,1.95 0.04,2.7 -7.77,7.96 -11.78,15.79 -13.69,23.56 -1.86,7.56 -1.75,15.16 -1.19,22.78 3.1,0.22 6.19,0.38 9.28,0.35 z M 39.74,97.9 c 0.75,0.75 0.75,1.96 0,2.71 -0.75,0.75 -1.96,0.75 -2.71,0 L 15.02,78.59 C 14.63,78.2 14.45,77.69 14.46,77.19 12.81,78.57 11.16,80.1 9.5,81.82 8.77,82.58 7.56,82.6 6.8,81.87 6.04,81.14 6.02,79.93 6.75,79.17 25.18,60.04 42.99,61.54 61.59,63.11 c 18.2,1.53 37.2,3.13 58.1,-16.02 0.78,-0.71 1.98,-0.66 2.69,0.12 0.71,0.78 0.66,1.98 -0.12,2.69 -19.51,17.88 -37.23,18.71 -54.16,17.56 0.72,8.53 1.07,17.12 -0.94,25.89 -2.18,9.53 -7.09,19.17 -17.24,28.99 -0.76,0.74 -1.97,0.72 -2.7,-0.04 -0.74,-0.76 -0.72,-1.97 0.04,-2.7 9.54,-9.24 14.15,-18.23 16.17,-27.09 1.93,-8.48 1.53,-16.92 0.81,-25.34 -0.99,-0.08 -1.99,-0.16 -2.98,-0.25 l -1.05,-0.09 c 0.58,7.93 0.75,15.74 -1.11,23.61 -2.04,8.57 -6.47,17.09 -15.39,25.69 -0.76,0.73 -1.97,0.71 -2.7,-0.05 -0.73,-0.76 -0.71,-1.97 0.05,-2.7 8.31,-8.01 12.44,-15.9 14.32,-23.81 1.8,-7.56 1.57,-15.23 0.98,-23.04 -3.3,-0.25 -6.58,-0.43 -9.84,-0.42 l 3.8,3.8 c 0.75,0.75 0.75,1.96 0,2.71 -0.75,0.75 -1.96,0.75 -2.71,0 l -5.29,-5.29 c -0.3,-0.3 -0.48,-0.67 -0.54,-1.05 -4.09,0.29 -8.15,0.98 -12.21,2.33 l 16.77,16.77 c 0.75,0.75 0.75,1.96 0,2.71 -0.75,0.75 -1.96,0.75 -2.71,0 L 26.44,70.91 C 26.18,70.65 26.01,70.33 25.93,70 c -3.06,1.33 -6.11,3.08 -9.17,5.36 0.35,0.07 0.68,0.25 0.96,0.52 z"
       id="path141"
       sodipodi:nodetypes="csssccsssccssscccccccccccccscccccccccccssccccscccsccccccccccccsccccssssccsscccccs"
       style="fill:#d5d5d5;fill-opacity:1" /></g></svg>
